<svg width="31" height="25" viewBox="0 0 31 25" fill="none" xmlns="http://www.w3.org/2000/svg">
<path d="M0.916656 3.10415C0.916656 1.4473 2.2598 0.104156 3.91666 0.104156H27.0833C28.7402 0.104156 30.0833 1.4473 30.0833 3.10416V21.8958C30.0833 23.5527 28.7402 24.8958 27.0833 24.8958H3.91665C2.2598 24.8958 0.916656 23.5527 0.916656 21.8958V3.10415Z" fill="#102542"/>
<path d="M5 3.89999C5 3.62385 5.22386 3.39999 5.5 3.39999H25.5C25.7761 3.39999 26 3.62385 26 3.89999V7.09999C26 7.37614 25.7761 7.59999 25.5 7.59999H5.5C5.22386 7.59999 5 7.37614 5 7.09999V3.89999Z" fill="white"/>
<path d="M5 15.1C5 14.8239 5.22386 14.6 5.5 14.6H12.9C13.1761 14.6 13.4 14.8239 13.4 15.1V21.1C13.4 21.3761 13.1761 21.6 12.9 21.6H5.5C5.22386 21.6 5 21.3761 5 21.1V15.1Z" fill="white"/>
<path d="M16.9583 10.8125C16.9583 10.5364 17.1822 10.3125 17.4583 10.3125H25.9375C26.2136 10.3125 26.4375 10.5364 26.4375 10.8125V21.4792C26.4375 21.7553 26.2136 21.9792 25.9375 21.9792H17.4583C17.1822 21.9792 16.9583 21.7553 16.9583 21.4792V10.8125Z" fill="white"/>
</svg>
