<svg width="25" height="25" viewBox="0 0 25 25" fill="none" xmlns="http://www.w3.org/2000/svg">
<path d="M0.25 2C0.25 1.53587 0.434374 1.09075 0.762563 0.762563C1.09075 0.434374 1.53587 0.25 2 0.25H23C23.4641 0.25 23.9093 0.434374 24.2374 0.762563C24.5656 1.09075 24.75 1.53587 24.75 2V5.5C24.75 5.96413 24.5656 6.40925 24.2374 6.73744C23.9093 7.06563 23.4641 7.25 23 7.25H2C1.53587 7.25 1.09075 7.06563 0.762563 6.73744C0.434374 6.40925 0.25 5.96413 0.25 5.5V2ZM0.25 12.5C0.25 12.0359 0.434374 11.5908 0.762563 11.2626C1.09075 10.9344 1.53587 10.75 2 10.75H12.5C12.9641 10.75 13.4092 10.9344 13.7374 11.2626C14.0656 11.5908 14.25 12.0359 14.25 12.5V23C14.25 23.4641 14.0656 23.9093 13.7374 24.2374C13.4092 24.5656 12.9641 24.75 12.5 24.75H2C1.53587 24.75 1.09075 24.5656 0.762563 24.2374C0.434374 23.9093 0.25 23.4641 0.25 23V12.5ZM19.5 10.75C19.0359 10.75 18.5908 10.9344 18.2626 11.2626C17.9344 11.5908 17.75 12.0359 17.75 12.5V23C17.75 23.4641 17.9344 23.9093 18.2626 24.2374C18.5908 24.5656 19.0359 24.75 19.5 24.75H23C23.4641 24.75 23.9093 24.5656 24.2374 24.2374C24.5656 23.9093 24.75 23.4641 24.75 23V12.5C24.75 12.0359 24.5656 11.5908 24.2374 11.2626C23.9093 10.9344 23.4641 10.75 23 10.75H19.5Z" fill="#102542"/>
</svg>
